<svg xmlns="http://www.w3.org/2000/svg" version="1.1" xmlns:xlink="http://www.w3.org/1999/xlink" xmlns:svgjs="http://svgjs.com/svgjs" width="1440" height="560" preserveAspectRatio="none" viewBox="0 0 1440 560"><g mask="url(&quot;#SvgjsMask1052&quot;)" fill="none"><rect width="1440" height="560" x="0" y="0" fill="rgba(255, 255, 255, 1)"></rect><path d="M691.817,736.894C744.107,739.167,798.232,724.677,827.293,681.147C859.539,632.847,865.746,569.565,837.351,518.905C808.386,467.23,751.031,437.723,691.817,439.446C635.386,441.088,585.697,476.574,560.252,526.97C537.062,572.899,547.989,626.597,575.312,670.193C600.782,710.833,643.9,734.811,691.817,736.894" fill="rgba(219, 194, 221, 0.4)" class="triangle-float2"></path><path d="M802.0716102189159 380.97650035082336L769.2167760120291 307.18333452162943 674.9544443716817 393.3621687465566z" fill="rgba(219, 194, 221, 0.4)" class="triangle-float2"></path><path d="M71.54090168189884 552.04132971458L212.88458182839472 511.6574211012954 122.02078744850449 420.79362672140525z" fill="rgba(219, 194, 221, 0.4)" class="triangle-float2"></path><path d="M1221.9349529721796 332.5670082344712L1301.2969163270575 244.42661853112804 1213.1565266237144 165.0646551762502 1133.7945632688366 253.20504487959334z" fill="rgba(219, 194, 221, 0.4)" class="triangle-float1"></path><path d="M897.2834644642458 411.485738493001L998.0926612182582 429.26111978428156 915.0588457555262 310.67654173898865z" fill="rgba(219, 194, 221, 0.4)" class="triangle-float2"></path><path d="M1346.163,646.885C1376.572,645.952,1409.249,639.154,1424.118,612.612C1438.753,586.487,1425.927,556.112,1411.809,529.704C1396.494,501.058,1378.549,469.301,1346.163,466.796C1310.528,464.04,1278.015,486.989,1260.206,517.977C1242.46,548.856,1239.701,588.031,1259.46,617.662C1277.595,644.858,1313.49,647.887,1346.163,646.885" fill="rgba(219, 194, 221, 0.4)" class="triangle-float3"></path><path d="M813.7495132009683 113.4297710134582L806.5080242677847 216.98788744859039 910.0661407029169 224.22937638177405 917.3076296361005 120.67125994664184z" fill="rgba(219, 194, 221, 0.4)" class="triangle-float1"></path><path d="M670.8896114538566 396.84097647024157L762.2836526260951 414.6061784466466 780.0488546025001 323.2121372744081 688.6548134302616 305.44693529800304z" fill="rgba(219, 194, 221, 0.4)" class="triangle-float2"></path><path d="M116.79444808220714 459.1669963984649L102.19918355951155 551.3178698857171 194.35005704676377 565.9131344084127 208.94532156945934 473.7622609211605z" fill="rgba(219, 194, 221, 0.4)" class="triangle-float3"></path><path d="M367.986,391.559C420.904,394.877,478.576,383.925,506.792,339.034C536.434,291.875,529.436,229.894,498.872,183.327C470.981,140.833,418.803,126.39,367.986,127.552C319.529,128.66,271.077,146.977,247.072,189.085C223.261,230.852,231.722,282.056,256.372,323.334C280.334,363.459,321.343,388.635,367.986,391.559" fill="rgba(219, 194, 221, 0.4)" class="triangle-float2"></path><path d="M911.551,633.153C942.491,633.225,965.881,607.909,980.358,580.565C993.795,555.185,996.554,524.922,981.939,500.202C967.563,475.887,939.798,464.1,911.551,464.191C883.478,464.281,856.177,476.455,841.945,500.653C827.527,525.168,830.067,555.07,843.294,580.248C857.643,607.561,880.698,633.082,911.551,633.153" fill="rgba(219, 194, 221, 0.4)" class="triangle-float1"></path><path d="M1427.606,254.01C1477.798,253.624,1526.476,229.369,1549.998,185.029C1572.305,142.98,1558.077,94.003,1534.395,52.712C1510.562,11.16,1475.506,-27.954,1427.606,-28.362C1379.18,-28.775,1342.033,9.042,1317.616,50.864C1292.942,93.126,1278.605,143.904,1301.906,186.939C1326.141,231.7,1376.707,254.402,1427.606,254.01" fill="rgba(219, 194, 221, 0.4)" class="triangle-float2"></path><path d="M1270.372,770.965C1326.818,769.477,1369.399,725.909,1397.336,676.838C1424.913,628.401,1437.558,571.274,1412.37,521.553C1384.756,467.045,1331.451,427.977,1270.372,426.217C1206.347,424.373,1143.891,456.581,1113.459,512.942C1084.291,566.961,1099.361,631.399,1131.26,683.852C1161.729,733.955,1211.752,772.51,1270.372,770.965" fill="rgba(219, 194, 221, 0.4)" class="triangle-float1"></path></g><defs><mask id="SvgjsMask1052"><rect width="1440" height="560" fill="#ffffff"></rect></mask><style>
            @keyframes float1 {
                0%{transform: translate(0, 0)}
                50%{transform: translate(-10px, 0)}
                100%{transform: translate(0, 0)}
            }

            .triangle-float1 {
                animation: float1 5s infinite;
            }

            @keyframes float2 {
                0%{transform: translate(0, 0)}
                50%{transform: translate(-5px, -5px)}
                100%{transform: translate(0, 0)}
            }

            .triangle-float2 {
                animation: float2 4s infinite;
            }

            @keyframes float3 {
                0%{transform: translate(0, 0)}
                50%{transform: translate(0, -10px)}
                100%{transform: translate(0, 0)}
            }

            .triangle-float3 {
                animation: float3 6s infinite;
            }
        </style></defs></svg>