<svg xmlns="http://www.w3.org/2000/svg" version="1.1" xmlns:xlink="http://www.w3.org/1999/xlink" xmlns:svgjs="http://svgjs.com/svgjs" width="1440" height="560" preserveAspectRatio="none" viewBox="0 0 1440 560"><g mask="url(&quot;#SvgjsMask1027&quot;)" fill="none"><rect width="1440" height="560" x="0" y="0" fill="rgba(255, 255, 255, 1)"></rect><path d="M0,268.135C68.166,282.304,137.342,341.539,200.041,311.27C261.336,281.679,264.831,195.221,285.416,130.345C303.684,72.774,318.82,15.112,313.091,-45.016C307.157,-107.294,295.589,-173.467,252.175,-218.511C209.44,-262.85,140.725,-261.406,83.242,-283.496C19.411,-308.026,-36.395,-362.749,-104.396,-355.538C-175.343,-348.014,-247.04,-306.673,-282.421,-244.719C-316.82,-184.485,-276.09,-109.748,-284.111,-40.849C-291.817,25.345,-356.749,89.665,-328.367,149.96C-299.926,210.38,-215.727,215.293,-152.893,237.906C-103.001,255.862,-51.915,257.344,0,268.135" fill="#dedede"></path><path d="M1440 969.812C1514.195 955.366 1560.459 885.788 1617.49 836.179 1665.874 794.092 1713.124 754.284 1748.933 701.085 1790.684 639.059 1842.623 576.922 1842.329 502.154 1842.0230000000001 424.21500000000003 1798.172 352.77 1747.3319999999999 293.695 1696.38 234.49 1632.024 181.365 1555.014 168.29899999999998 1480.955 155.73399999999998 1409.252 192.224 1341.592 224.85399999999998 1282.6779999999999 253.26600000000002 1240.84 301.976 1190.711 343.99 1129.577 395.228 1019.475 419.226 1014.6800000000001 498.848 1009.746 580.77 1135.174 608.995 1170.285 683.175 1204.589 755.652 1156.789 856.7860000000001 1211.738 915.183 1266.46 973.338 1361.619 985.0740000000001 1440 969.812" fill="#ffffff"></path></g><defs><mask id="SvgjsMask1027"><rect width="1440" height="560" fill="#ffffff"></rect></mask></defs></svg>